<svg width="640" height="420" viewBox="0 0 640 420" fill="none" xmlns="http://www.w3.org/2000/svg">
  <defs>
    <linearGradient id="bg" x1="0" y1="0" x2="640" y2="420" gradientUnits="userSpaceOnUse">
      <stop stop-color="#0F3B20"/>
      <stop offset="1" stop-color="#4F9C63"/>
    </linearGradient>
    <linearGradient id="hill" x1="0" y1="210" x2="640" y2="420" gradientUnits="userSpaceOnUse">
      <stop stop-color="#91C98A"/>
      <stop offset="1" stop-color="#2E6F43"/>
    </linearGradient>
  </defs>
  <rect width="640" height="420" rx="34" fill="url(#bg)"/>
  <circle cx="520" cy="92" r="42" fill="#DFF3C3" fill-opacity="0.92"/>
  <path d="M0 260C81 220 124 246 203 214C282 182 352 235 432 235C512 235 574 176 640 205V420H0V260Z" fill="#6EB06A" fill-opacity="0.9"/>
  <path d="M0 308C99 286 154 340 249 316C344 292 407 247 491 271C555 289 596 330 640 319V420H0V308Z" fill="url(#hill)"/>
  <g opacity="0.98">
    <rect x="128" y="158" width="128" height="114" rx="18" fill="#F4F8EE"/>
    <rect x="148" y="182" width="88" height="14" rx="7" fill="#D3E7C8"/>
    <rect x="148" y="208" width="66" height="10" rx="5" fill="#C7DDBA"/>
    <rect x="148" y="228" width="95" height="10" rx="5" fill="#C7DDBA"/>
    <circle cx="225" cy="245" r="17" fill="#54A15E"/>
    <path d="M223 235C230 239 236 247 236 257C227 257 220 252 217 245C214 238 216 232 219 227C221 230 221 233 223 235Z" fill="#EAF6DA"/>
  </g>
  <g>
    <path d="M433 220C433 184 462 155 498 155C534 155 563 184 563 220V279H433V220Z" fill="#173E25"/>
    <rect x="446" y="214" width="104" height="58" rx="16" fill="#F4F8EE"/>
    <rect x="461" y="231" width="46" height="8" rx="4" fill="#D4E8C8"/>
    <rect x="461" y="248" width="74" height="8" rx="4" fill="#D4E8C8"/>
    <circle cx="530" cy="244" r="9" fill="#58A55F"/>
  </g>
  <g opacity="0.85">
    <path d="M93 333C111 292 142 264 165 264C188 264 219 292 237 333H93Z" fill="#163E23"/>
    <rect x="159" y="330" width="13" height="58" rx="6.5" fill="#2A5F33"/>
    <path d="M259 350C278 302 312 269 337 269C362 269 396 302 415 350H259Z" fill="#214B2E"/>
    <rect x="331" y="347" width="13" height="59" rx="6.5" fill="#2C6036"/>
    <path d="M486 344C503 307 533 283 555 283C577 283 607 307 624 344H486Z" fill="#214B2E"/>
    <rect x="549" y="341" width="12" height="54" rx="6" fill="#2C6036"/>
  </g>
</svg>
